<!--?xml version="1.0" encoding="utf-8"?-->
<!-- Generator: Adobe Illustrator 18.1.1, SVG Export Plug-In . SVG Version: 6.00 Build 0)  -->

<svg version="1.1" id="_x31_0" xmlns="http://www.w3.org/2000/svg" xmlns:xlink="http://www.w3.org/1999/xlink" x="0px" y="0px" viewBox="0 0 512 512" style="width: 256px; height: 256px; opacity: 1;" xml:space="preserve">
<style type="text/css">
	.st0{fill:#374149;}
</style>
<g>
	<path class="st0" d="M509.65,279.54c-85.047-57.041-110.462-158.503-197.722-213.897c-0.353,0.458-0.709,0.915-1.066,1.376
		l-0.18,0.166c-1.342-3.046-3.616-5.739-7.105-7.36c-6.482-3.012-14.243-0.488-18.617,5.169L3.394,429.123
		c-4.482,5.799-4.678,14.236,0.326,19.589c6.374,6.827,17.004,6.099,22.47-0.964l142.426-184.192
		c94.407,28.694,154.947,110.185,249.62,138.934c4.626,1.403,9.667-0.525,12.387-4.524c26.674-39.2,52.362-74.604,80.302-110.897
		C512.774,284.664,512.166,281.228,509.65,279.54z M281.047,299.819c-16.006-14.119-24.484-21.337-42.276-31.968
		c-0.645-0.394-1.215-0.758-1.886-1.159c14.438-18.673,21.734-28.111,36.064-46.642l0.236-0.289l-0.007-0.003
		c0.034-0.046,0.06-0.079,0.094-0.124c-13.925-9.885-22.065-14.667-37.651-20.144c-1.504-0.544-3.005-1.088-4.658-1.654
		c18.039-23.325,27.068-35.002,45.119-58.346c17.278,7.514,25.01,12.912,38.498,24.612c0.297,0.262,0.559,0.48,0.859,0.75
		l0.007-0.008c0.038,0.034,0.075,0.064,0.117,0.102c12.953-16.757,20.174-26.094,31.858-41.207l4.554-5.848
		c15.5,16.029,22.072,25.579,34.995,44.962c-13.4,17.327-20.099,25.993-33.498,43.319c13.448,17.072,20.058,26.712,32.879,43.098
		c0.57,0.75,1.088,1.437,1.681,2.217l0.022-0.034c0.034,0.045,0.063,0.082,0.098,0.127c11.943-15.447,18.099-23.407,29.762-38.49
		l0.859-1.043c12.912,19.356,19.487,28.91,34.991,44.939c-11.081,14.326-16.618,21.491-27.699,35.821
		c13.156,11.471,20.786,16.985,36.042,23.898c1.126,0.526,2.202,1.035,3.418,1.579c-11.715,15.151-17.582,22.74-29.304,37.902
		c-18.854-6.223-27.062-10.916-42.337-21.761c-11.081,14.33-16.622,21.494-27.698,35.82c-19.184-11.294-27.59-18.474-44.186-33.119
		c12.24-15.826,18.358-23.742,30.598-39.567c-15.432-16.146-22.612-24.912-38.045-41.054c-0.038,0.045-0.063,0.079-0.098,0.124
		c-0.003-0.008-0.007-0.011-0.014-0.015l-0.022,0.064c-12.683,16.4-19.435,25.133-31.601,40.869L281.047,299.819z" style="fill: rgb(85, 85, 85);"></path>
	<path class="st0" d="M314.575,256.474c15.549-20.11,23.326-30.164,38.874-50.274c-13.692-17.38-20.902-26.222-36.597-40.045
		c-0.413-0.371-0.77-0.705-1.197-1.084l-0.007,0.011c-0.042-0.038-0.075-0.067-0.113-0.105
		c-16.412,21.221-24.912,32.215-40.862,52.839l-1.287,1.654c0,0.004,0,0.004,0,0.004c-0.03,0.045-0.056,0.078-0.09,0.124
		C291.318,232.395,299.143,240.328,314.575,256.474z" style="fill: rgb(85, 85, 85);"></path>
	<path class="st0" d="M393.902,334.397c12.855-16.629,19.285-24.942,32.144-41.567c-15.398-13.426-22.743-22.05-34.86-37.358
		c-0.968-1.242-1.898-2.431-2.937-3.77l-0.023,0.03c-0.034-0.046-0.063-0.082-0.098-0.124
		c-14.202,18.366-21.306,27.549-35.509,45.918C368.057,313.668,375.882,321.602,393.902,334.397z" style="fill: rgb(85, 85, 85);"></path>
</g>
</svg>
