<!--?xml version="1.0" encoding="utf-8"?-->
<!-- Generator: Adobe Illustrator 19.1.1, SVG Export Plug-In . SVG Version: 6.00 Build 0)  -->
<svg version="1.1" id="_x31_0" xmlns="http://www.w3.org/2000/svg" xmlns:xlink="http://www.w3.org/1999/xlink" x="0px" y="0px" viewBox="0 0 512 512" style="width: 256px; height: 256px; opacity: 1;" xml:space="preserve">
<style type="text/css">
	.st0{fill:#374149;}
</style>
<g>
	<path class="st0" d="M256,0C114.617,0,0,114.617,0,256c0,141.39,114.617,256,256,256s256-114.61,256-256
		C512,114.617,397.383,0,256,0z M303.274,213.93l0.031-0.043l0.094,0.137l31.75-41.367c6.706-8.938,21.015-4.015,21.015,7.164
		v113.266H155.836V179.82c0-11.179,14.313-16.102,21.242-7.164l23.953,31.434l7.438,9.844l0.027-0.043l0.106,0.133l37.789-54.766
		c4.692-6.718,14.527-6.718,19.223,0l28.859,41.828L303.274,213.93z M155.836,350.18v-28.618h200.328v28.618
		c0,4.242-3.578,7.609-7.828,7.609H163.664C159.414,357.789,155.836,354.422,155.836,350.18z" style="fill: rgb(190, 193, 195);"></path>
</g>
</svg>
