<!--?xml version="1.0" encoding="utf-8"?-->
<!-- Generator: Adobe Illustrator 18.1.1, SVG Export Plug-In . SVG Version: 6.00 Build 0)  -->

<svg version="1.1" id="_x31_0" xmlns="http://www.w3.org/2000/svg" xmlns:xlink="http://www.w3.org/1999/xlink" x="0px" y="0px" viewBox="0 0 512 512" style="width: 256px; height: 256px; opacity: 1;" xml:space="preserve">
<style type="text/css">
	.st0{fill:#374149;}
</style>
<g>
	<path class="st0" d="M465.602,8H46.402C20.801,8,0,28.797,0,54.481v403.117C0,483.278,20.801,504,46.402,504h419.199
		C491.203,504,512,483.278,512,457.598V54.481C512,28.797,491.203,8,465.602,8z M327.519,58.398
		c0-11.602,9.442-21.039,21.043-21.039c11.52,0,20.957,9.438,20.957,21.039c0,11.519-9.437,20.961-20.957,20.961
		C336.961,79.359,327.519,69.918,327.519,58.398z M397.519,58.398c0-11.602,9.442-21.039,21.043-21.039
		c11.52,0,20.957,9.438,20.957,21.039c0,11.519-9.437,20.961-20.957,20.961C406.961,79.359,397.519,69.918,397.519,58.398z
		 M464,455.086V456H48V104h416V455.086z" style="fill: rgb(85, 85, 85);"></path>
	<polygon class="st0" points="104.871,230.938 104.871,231.098 120.707,231.098 120.707,207.836 120.836,188.82 148.554,231.098 
		162.019,231.098 162.019,156.95 146.187,156.95 146.187,180.09 146.054,199.129 118.328,156.95 104.871,156.95 104.871,230.711 
		104.871,230.938 	" style="fill: rgb(85, 85, 85);"></polygon>
	<polygon class="st0" points="238.191,216.785 204.61,216.785 204.61,200.875 233.207,200.875 233.207,186.562 204.61,186.562 
		204.61,171.262 238.191,171.262 238.191,156.95 188.778,156.95 188.778,231.098 238.191,231.098 	" style="fill: rgb(85, 85, 85);"></polygon>
	<polygon class="st0" points="273.683,231.098 286.77,231.098 293.73,208.152 299.543,189.438 312.176,231.098 325.262,231.098 
		341.05,172.215 345.145,157.11 345.102,157.106 345.145,156.95 328.621,156.95 322.871,180.207 317.848,199.957 305.402,156.95 
		293.543,156.95 286.836,180.11 280.95,199.938 270.422,156.95 257.426,156.95 254.054,156.906 254.066,156.95 253.902,156.95 	" style="fill: rgb(85, 85, 85);"></polygon>
	<path class="st0" d="M382.641,217.394c-3.238,0-6.344-0.434-9.226-1.285c-2.832-0.836-5.383-2.379-7.586-4.574l-0.48-0.485v-0.003
		h-0.004l-0.114-0.114l-10.351,10.355l0.59,0.598c3.61,3.68,7.676,6.266,12.106,7.696c4.359,1.41,9.394,2.125,14.957,2.125
		c3.859,0,7.519-0.508,10.875-1.512c3.378-1.004,6.351-2.488,8.836-4.414c2.5-1.946,4.48-4.356,5.886-7.165
		c1.398-2.824,2.114-6.098,2.114-9.738c0-3.336-0.458-6.371-1.359-9.028c-0.926-2.702-2.442-5.011-4.481-6.835
		c-1.641-1.633-3.618-2.93-5.879-3.848c-2.238-0.906-5.078-1.61-8.438-2.09l-8.664-1.325c-1.465-0.191-2.699-0.507-3.675-0.953
		c-0.962-0.43-1.797-0.965-2.454-1.554c-0.652-0.657-1.102-1.352-1.367-2.118c-0.281-0.793-0.422-1.625-0.422-2.473
		c0-2.293,0.805-4.21,2.453-5.863c1.633-1.621,4.25-2.445,7.801-2.445c2.301,0,4.77,0.285,7.344,0.843
		c2.484,0.539,4.813,1.852,6.926,3.902l0.594,0.578l9.902-9.797l0.141-0.133l-0.004-0.004l0.118-0.11l-0.614-0.602
		c-3.207-3.133-6.766-5.386-10.602-6.71c-3.809-1.313-8.316-1.981-13.398-1.981c-4,0-7.66,0.566-10.867,1.68
		c-3.203,1.113-5.969,2.691-8.214,4.691c-2.242,1.996-4,4.422-5.207,7.218c-1.192,2.77-1.79,5.879-1.79,9.242
		c0,6.39,1.832,11.39,5.442,14.855c1.695,1.629,3.734,2.969,6.055,3.981c2.293,1.012,5.133,1.766,8.445,2.246l8.653,1.332
		c1.766,0.258,3.082,0.554,3.894,0.863c0.785,0.301,1.515,0.762,2.152,1.336c1.332,1.339,1.989,3.105,1.989,5.406
		c0,2.649-0.954,4.622-2.906,6.028C389.793,216.66,386.715,217.394,382.641,217.394z" style="fill: rgb(85, 85, 85);"></path>
	<polygon class="st0" points="406.574,272.722 274.817,272.722 274.446,272.718 274.446,272.722 274.285,272.722 274.285,287.39 
		406.574,287.39 406.574,272.969 406.574,272.883 406.574,272.883 	" style="fill: rgb(85, 85, 85);"></polygon>
	<polygon class="st0" points="406.574,310.809 274.817,310.809 274.446,310.809 274.285,310.809 274.285,325.477 406.574,325.477 
		406.574,311.05 406.574,310.965 406.574,310.965 	" style="fill: rgb(85, 85, 85);"></polygon>
	<polygon class="st0" points="274.446,348.89 274.446,348.894 274.285,348.894 274.285,363.562 386.242,363.562 386.242,349.098 
		386.242,349.054 386.242,348.894 274.754,348.894 	" style="fill: rgb(85, 85, 85);"></polygon>
	<path class="st0" d="M105.426,272.718v123.61H240.89v-123.61H105.426z M219.992,363.863l-81.054-70.351h81.16v42.703
		L219.992,363.863z M208.855,375.535h-82.633v-71.883l46.973,40.77L208.855,375.535z" style="fill: rgb(85, 85, 85);"></path>
</g>
</svg>
